<?xml version="1.0" encoding="utf-8"?>
<!-- Generator: Adobe Illustrator 25.0.1, SVG Export Plug-In . SVG Version: 6.00 Build 0)  -->
<svg version="1.1" id="Layer_1" xmlns="http://www.w3.org/2000/svg" xmlns:xlink="http://www.w3.org/1999/xlink" x="0px" y="0px"
	 viewBox="0 0 80 80" style="enable-background:new 0 0 80 80;" xml:space="preserve">
<style type="text/css">
	.st0{fill:#FFFFFF;stroke:#FFFFFF;stroke-width:0.75;stroke-miterlimit:10;}
	.st1{fill:#FFFFFF;}
	.st2{font-family:'HiraKakuStdN-W8-83pv-RKSJ-H';}
	.st3{font-size:9.3311px;}
</style>
<rect x="0" width="80" height="80"/>
<g transform="translate(0.000000,500.000000) scale(0.100000,-0.100000)">
	<path class="st0" d="M423,4866.5c-54.8-25.4-63.4-29.7-65.3-32.8c-1.9-3.1-2-9.8-2-174.2c0-152.5-0.2-171.3-1.6-172.4
		c-2.4-2-18.9,1.6-21,4.6c-1.4,1.9-1.6,21.7-1.6,147.7c0,130.9-0.2,145.7-1.7,148c-2.1,3.3-7.4,5.1-11.5,3.8
		c-7.7-2.3-72.8-34-75-36.5l-2.3-2.6v-103c0-101.9,0-103-2.1-104.2c-1.4-0.7-2.7-0.7-4-0.1c-3.1,1.6-19.1,18.8-27.8,29.7
		c-8.5,10.6-10.7,12.1-16.4,10.5c-1.8-0.5-12.3-7.9-23.4-16.4c-11-8.4-20.9-15.3-21.9-15.2c-5.8,0.5-8.6-1.7-8.6-6.7
		c0-4.2,0.9-5.7,4.2-6.8c4.4-1.6,8.2,0.4,9.6,5.2c1.2,3.6,3.6,5.9,20.7,18.9c10.6,8.2,20.2,15,21.1,15.3c2.3,0.6,2.8,0.1,10.4-9.6
		c9.9-12.6,28.1-30.7,31.6-31.4c1.6-0.3,4.2,0,6,0.7c6.7,2.8,6.3-4.8,6.8,108.9l0.5,103.7l36.3,17c19.9,9.5,36.8,17.1,37.6,17.1
		c0.6,0,2-0.7,2.8-1.7c1.5-1.5,1.7-16.3,1.7-147.2c0-104.5,0.3-146.3,1.2-148.1c1.5-3.4,3.7-4.4,14.5-7c9.9-2.5,13.5-2.1,17,1.7
		l2.5,2.7l0.3,171.7c0.2,161.8,0.3,171.9,2.1,173.4c1.4,1.3,65.1,31.7,71.5,34.2c0.7,0.3,2.3-0.3,3.4-1.3c2.1-1.9,2.1-4.4,2.1-188.5
		c0-205.9-0.5-190.3,6.5-192.7c3.3-1.2,10.5-0.1,14.6,2.1c5.4,2.8,5.2-1.1,5.2,118.5c0,61.2,0.4,111.8,0.8,112.5
		c0.9,1.4,70.3,24.6,73.5,24.6c1.3,0,2.8-0.9,3.5-2c0.7-1.4,1.1-34,1.1-98.3v-96.2l2.6-2.7c3.4-3.3,7.5-4.1,11.6-2.3
		c3.9,1.6,18.2,16.4,29.4,30.3c4.5,5.6,8.8,10.2,9.7,10.2c2.6,0,43.6-31.7,43.6-33.7c0-6,8.9-9,12.8-4.3c4.3,5.4,0.8,12.2-6.1,12
		c-3.7-0.1-6,1.3-24.6,15.4c-11.4,8.5-21.9,15.9-23.5,16.3c-4.6,1.2-8.6-1.6-16.1-10.9c-10.3-13-21.3-24.8-26-28.1l-4.1-2.8l-2,2.4
		c-1.9,2.3-2,6-2,98.7v96.3l-3.1,3.1c-1.9,1.9-4.2,3.1-6,3.1c-2.7,0-66.5-20.4-74.4-23.9c-7.5-3.3-7,4.5-7-119.1
		c0-123.5,0.5-113.9-6.9-115.4c-2.8-0.5-4.2-0.2-5.5,1.1c-1.7,1.6-1.8,16-2,188.2c-0.2,147.6-0.5,187-1.6,189
		c-1.2,2.2-6.4,5.4-8.9,5.4C435.5,4872.1,429.6,4869.6,423,4866.5z"/>
	<path class="st0" d="M396.3,4793c-2.3-3.3-2.1-7.5,0.4-9.8c2.1-1.9,2.1-3.3,2.1-149.1c0-145.7,0-147.3-2.1-149.9
		c-4.3-5.6-1.5-11.9,5.3-11.9s9.6,6.3,5.3,11.9c-2.1,2.6-2.1,4.2-2.1,149.6c0,145.4,0,147,2.1,149.6c1.2,1.5,2.1,3.8,2.1,5.2
		C409.3,4794.7,399.7,4797.9,396.3,4793z"/>
	<path class="st0" d="M284.1,4722c-5.4-2-7.2-8.8-3.2-12.4c2.1-1.9,2.1-3.3,2.1-101.7c0-98.4,0-99.7-2.1-101.8
		c-1.2-1.2-2.1-3.5-2.1-5.3c0-6.8,8.3-9.9,12.5-4.6c2.7,3.6,2.8,6.7,0.1,9.7c-2.1,2.2-2.1,3.7-2.1,101.8c0,98,0,99.5,2.1,102.2
		c1.2,1.5,2.1,3.8,2.1,5.1C293.6,4719.2,288.1,4723.5,284.1,4722z"/>
	<path class="st0" d="M500.6,4668.2c-2.4-2.7-2.3-8.2,0.3-10.4c2.1-1.8,2.1-3.2,2.1-67.7s0-65.9-2.1-67.7c-4-3.5-2-12.1,2.9-12.4
		c5.9-0.4,8.2,0.9,9.2,5.6c0.5,2.4,0.2,4-1.5,6.2c-2.2,2.9-2.2,3.6-2.2,68.4c0,63.8,0,65.3,2.1,68c2.6,3.5,2.6,5.7-0.1,9.2
		C508.7,4670.7,503.2,4671.2,500.6,4668.2z"/>
</g>
<text transform="matrix(1 0 0 1 5.3501 69.9652)" class="st1 st2 st3">Building SVG</text>
</svg>
